# Hierarchical Translation and Rotation (.htr) file
# Generated by EVaRT
[Header]
FileType htr
DataType HTRS
FileVersion 1
NumSegments 23
NumFrames 4
DataFrameRate 120
EulerRotationOrder ZYX
CalibrationUnits mm
RotationUnits Degrees
GlobalAxisofGravity Y
BoneLengthAxis Y
ScaleFactor 1
[SegmentNames&Hierarchy]
#CHILD            PARENT
DaveRoot          GLOBAL
Spine1            DaveRoot
Spine2            Spine1
Spine3            Spine2
Spine4            Spine3
Neck              Spine4
Head              Neck
LClavicle         Spine4
LUpperArm         LClavicle
LLowerArm         LUpperArm
LHand             LLowerArm
RClavicle         Spine4
RUpperArm         RClavicle
RLowerArm         RUpperArm
RHand             RLowerArm
RUpperLeg         DaveRoot
RLowerLeg         RUpperLeg
RFoot             RLowerLeg
RToes             RFoot
LUpperLeg         DaveRoot
LLowerLeg         LUpperLeg
LFoot             LLowerLeg
LToes             LFoot
[BasePosition]
#SegmentName      Tx   Ty   Tz   Rx   Ry   Rz   BoneLength
DaveRoot          209.518790	1014.822220	-351.309218	15.931515	2.618173	-0.612188	100.000000
Spine1            0.000000	100.000000	0.000000	-16.793488	0.293500	-0.473802	100.000000
Spine2            0.000000	100.000000	0.000000	4.672625	0.349043	-0.357343	100.000000
Spine3            0.000000	100.000000	0.000000	10.998894	0.386292	-0.316706	100.000000
Spine4            0.000000	100.000000	0.000000	12.138707	1.462162	1.217268	100.000000
Neck              0.000000	100.000000	0.000000	12.810480	14.955418	1.620949	80.000000
Head              0.000000	80.000000	0.000000	-44.031424	-2.973179	-2.367844	200.000000
LClavicle         0.000000	100.000000	0.000000	-0.941684	-2.086145	-99.536471	200.000000
LUpperArm         0.000000	200.000000	0.000000	10.837043	12.737179	14.309854	300.000000
LLowerArm         0.000000	300.000000	0.000000	2.090205	2.175812	1.895763	200.000000
LHand             0.000000	200.000000	0.000000	-1.396534	-1.768569	8.793625	120.000000
RClavicle         0.000000	100.000000	0.000000	1.262055	-3.879913	108.124298	200.000000
RUpperArm         0.000000	200.000000	0.000000	10.866823	4.985308	-18.992585	300.000000
RLowerArm         0.000000	300.000000	0.000000	5.968673	-3.682026	-7.348670	200.000000
RHand             0.000000	200.000000	0.000000	-1.057110	-1.690862	-7.465634	120.000000
RUpperLeg         -115.911102	-10.000000	31.058285	24.909801	27.531946	-169.439912	530.000000
RLowerLeg         0.000000	530.000000	0.000000	-7.321572	0.479387	-2.520024	460.000000
RFoot             0.000000	460.000000	0.000000	82.352420	-1.863170	1.930421	130.000000
RToes             0.000000	130.000000	0.000000	17.737744	0.005479	-0.002881	100.000000
LUpperLeg         115.911102	-10.000000	31.058285	23.717246	9.590578	-171.144790	530.000000
LLowerLeg         0.000000	530.000000	0.000000	-5.150575	-3.275937	3.046484	460.000000
LFoot             0.000000	460.000000	0.000000	77.933010	-13.262104	9.769004	130.000000
LToes             0.000000	130.000000	0.000000	27.000770	-0.000000	-0.000086	100.000000
#Beginning of Data.
[DaveRoot]
#Fr	Tx	Ty	Tz	Rx	Ry	Rz	SF
628	1428.214582	32.297422	440.427724	-141.416304	-48.496985	162.436760	1.000000	
629	1426.941899	32.315247	441.353834	-141.312799	-48.253091	162.392094	1.000000	
630	1425.709528	32.265077	442.275739	-141.268208	-48.028511	162.334745	1.000000	
631	1424.533805	32.122695	443.200098	-141.279452	-47.824302	162.285388	1.000000	
[Spine1]
#Fr	Tx	Ty	Tz	Rx	Ry	Rz	SF
628	0.000000	0.000000	0.000000	0.981972	0.110634	-1.136639	1.000000	
629	0.000000	0.000000	0.000000	0.870305	0.143907	-1.171158	1.000000	
630	0.000000	0.000000	0.000000	0.882485	0.132706	-1.219648	1.000000	
631	0.000000	0.000000	0.000000	0.972044	0.096179	-1.266740	1.000000	
[Spine2]
#Fr	Tx	Ty	Tz	Rx	Ry	Rz	SF
628	0.000000	0.000000	0.000000	0.981972	0.110634	-1.136639	1.000000	
629	0.000000	0.000000	0.000000	0.870305	0.143907	-1.171158	1.000000	
630	0.000000	0.000000	0.000000	0.882485	0.132706	-1.219648	1.000000	
631	0.000000	0.000000	0.000000	0.972044	0.096179	-1.266740	1.000000	
[Spine3]
#Fr	Tx	Ty	Tz	Rx	Ry	Rz	SF
628	0.000000	0.000000	0.000000	0.981972	0.110634	-1.136639	1.000000	
629	0.000000	0.000000	0.000000	0.870305	0.143907	-1.171158	1.000000	
630	0.000000	0.000000	0.000000	0.882485	0.132706	-1.219648	1.000000	
631	0.000000	0.000000	0.000000	0.972044	0.096179	-1.266740	1.000000	
[Spine4]
#Fr	Tx	Ty	Tz	Rx	Ry	Rz	SF
628	0.000000	0.000000	0.000000	0.981972	0.110634	-1.136639	1.000000	
629	0.000000	0.000000	0.000000	0.870305	0.143907	-1.171158	1.000000	
630	0.000000	0.000000	0.000000	0.882485	0.132706	-1.219648	1.000000	
631	0.000000	0.000000	0.000000	0.972044	0.096179	-1.266740	1.000000	
[Neck]
#Fr	Tx	Ty	Tz	Rx	Ry	Rz	SF
628	0.000000	0.000000	0.000000	2.195748	11.584382	-1.012033	1.000000	
629	0.000000	0.000000	0.000000	2.493376	11.705160	-0.833461	1.000000	
630	0.000000	0.000000	0.000000	2.342172	11.870729	-0.885461	1.000000	
631	0.000000	0.000000	0.000000	1.932225	12.037727	-1.095123	1.000000	
[Head]
#Fr	Tx	Ty	Tz	Rx	Ry	Rz	SF
628	0.000000	0.000000	0.000000	2.195748	11.584382	-1.012033	1.000000	
629	0.000000	0.000000	0.000000	2.493376	11.705160	-0.833461	1.000000	
630	0.000000	0.000000	0.000000	2.342172	11.870729	-0.885461	1.000000	
631	0.000000	0.000000	0.000000	1.932225	12.037727	-1.095123	1.000000	
[LClavicle]
#Fr	Tx	Ty	Tz	Rx	Ry	Rz	SF
628	0.000000	0.000000	0.000000	4.645411	0.887404	-15.709087	1.000000	
629	0.000000	0.000000	0.000000	5.630944	1.059486	-15.539577	1.000000	
630	0.000000	0.000000	0.000000	5.417499	1.017395	-15.522452	1.000000	
631	0.000000	0.000000	0.000000	4.572446	0.854506	-15.480923	1.000000	
[LUpperArm]
#Fr	Tx	Ty	Tz	Rx	Ry	Rz	SF
628	0.000000	0.000000	0.000000	33.744718	26.280104	-39.603018	1.000000	
629	0.000000	0.000000	0.000000	30.075706	24.280192	-41.917334	1.000000	
630	0.000000	0.000000	0.000000	30.925401	24.823112	-41.377842	1.000000	
631	0.000000	0.000000	0.000000	33.962508	26.417852	-39.533439	1.000000	
[LLowerArm]
#Fr	Tx	Ty	Tz	Rx	Ry	Rz	SF
628	0.000000	0.000000	0.000000	-0.178587	-0.000000	0.000000	1.000000	
629	0.000000	0.000000	0.000000	5.210094	-0.000000	0.000000	1.000000	
630	0.000000	0.000000	0.000000	3.467029	-0.000000	0.000000	1.000000	
631	0.000000	0.000000	0.000000	-1.313561	-0.000000	0.000000	1.000000	
[LHand]
#Fr	Tx	Ty	Tz	Rx	Ry	Rz	SF
628	0.000000	0.000000	0.000000	13.568370	0.000000	-0.000000	1.000000	
629	0.000000	0.000000	0.000000	9.272562	0.000000	-0.000000	1.000000	
630	0.000000	0.000000	0.000000	10.459663	0.000000	-0.000000	1.000000	
631	0.000000	0.000000	0.000000	13.917018	0.000000	-0.000000	1.000000	
[RClavicle]
#Fr	Tx	Ty	Tz	Rx	Ry	Rz	SF
628	0.000000	0.000000	0.000000	4.575945	-0.324008	3.716307	1.000000	
629	0.000000	0.000000	0.000000	4.899768	-0.349178	3.741054	1.000000	
630	0.000000	0.000000	0.000000	4.866320	-0.359325	3.887600	1.000000	
631	0.000000	0.000000	0.000000	4.599787	-0.356347	4.095105	1.000000	
[RUpperArm]
#Fr	Tx	Ty	Tz	Rx	Ry	Rz	SF
628	0.000000	0.000000	0.000000	13.551168	-25.559673	60.336009	1.000000	
629	0.000000	0.000000	0.000000	12.823189	-24.894198	60.824504	1.000000	
630	0.000000	0.000000	0.000000	13.200837	-24.982638	60.490852	1.000000	
631	0.000000	0.000000	0.000000	14.173494	-25.346657	59.705352	1.000000	
[RLowerArm]
#Fr	Tx	Ty	Tz	Rx	Ry	Rz	SF
628	0.000000	0.000000	0.000000	12.187044	-0.000000	-0.000000	1.000000	
629	0.000000	0.000000	0.000000	12.842877	-0.000000	-0.000000	1.000000	
630	0.000000	0.000000	0.000000	12.832207	-0.000000	-0.000000	1.000000	
631	0.000000	0.000000	0.000000	12.681486	-0.000000	-0.000000	1.000000	
[RHand]
#Fr	Tx	Ty	Tz	Rx	Ry	Rz	SF
628	0.000000	0.000000	0.000000	5.486420	-2.796416	4.642144	1.000000	
629	0.000000	0.000000	0.000000	5.133253	-2.665909	4.585046	1.000000	
630	0.000000	0.000000	0.000000	5.372680	-2.207245	4.506999	1.000000	
631	0.000000	0.000000	0.000000	5.747850	-1.851861	4.390495	1.000000	
[RUpperLeg]
#Fr	Tx	Ty	Tz	Rx	Ry	Rz	SF
628	0.000000	0.000000	0.000000	-6.017465	-9.700455	-2.981488	1.000000	
629	0.000000	0.000000	0.000000	-5.821184	-9.640731	-3.197971	1.000000	
630	0.000000	0.000000	0.000000	-5.695487	-9.551267	-3.439561	1.000000	
631	0.000000	0.000000	0.000000	-5.628618	-9.474522	-3.675758	1.000000	
[RLowerLeg]
#Fr	Tx	Ty	Tz	Rx	Ry	Rz	SF
628	0.000000	0.000000	0.000000	-10.370520	0.000000	-0.000000	1.000000	
629	0.000000	0.000000	0.000000	-10.379693	-0.000000	-0.000000	1.000000	
630	0.000000	0.000000	0.000000	-10.366021	-0.000000	-0.000000	1.000000	
631	0.000000	0.000000	0.000000	-10.336619	0.000000	-0.000000	1.000000	
[RFoot]
#Fr	Tx	Ty	Tz	Rx	Ry	Rz	SF
628	0.000000	0.000000	0.000000	23.130080	42.849668	-0.073260	1.000000	
629	0.000000	0.000000	0.000000	23.113508	42.681332	0.180218	1.000000	
630	0.000000	0.000000	0.000000	23.156288	42.556127	0.484380	1.000000	
631	0.000000	0.000000	0.000000	23.281678	42.505712	0.810705	1.000000	
[RToes]
#Fr	Tx	Ty	Tz	Rx	Ry	Rz	SF
628	0.000000	0.000000	0.000000	-36.392099	0.000000	0.000000	1.000000	
629	0.000000	0.000000	0.000000	-36.310261	-0.000000	0.000000	1.000000	
630	0.000000	0.000000	0.000000	-36.293253	0.000000	0.000000	1.000000	
631	0.000000	0.000000	0.000000	-36.359695	0.000000	0.000000	1.000000	
[LUpperLeg]
#Fr	Tx	Ty	Tz	Rx	Ry	Rz	SF
628	0.000000	0.000000	0.000000	1.069292	-6.412430	-7.094834	1.000000	
629	0.000000	0.000000	0.000000	0.967097	-6.380875	-7.322617	1.000000	
630	0.000000	0.000000	0.000000	0.798873	-6.327477	-7.559187	1.000000	
631	0.000000	0.000000	0.000000	0.606536	-6.289326	-7.781847	1.000000	
[LLowerLeg]
#Fr	Tx	Ty	Tz	Rx	Ry	Rz	SF
628	0.000000	0.000000	0.000000	-13.626998	0.000000	0.000000	1.000000	
629	0.000000	0.000000	0.000000	-13.258456	0.000000	0.000000	1.000000	
630	0.000000	0.000000	0.000000	-12.882416	0.000000	0.000000	1.000000	
631	0.000000	0.000000	0.000000	-12.558775	0.000000	0.000000	1.000000	
[LFoot]
#Fr	Tx	Ty	Tz	Rx	Ry	Rz	SF
628	0.000000	0.000000	0.000000	8.339367	4.630979	-2.928713	1.000000	
629	0.000000	0.000000	0.000000	8.167946	4.775309	-2.620986	1.000000	
630	0.000000	0.000000	0.000000	7.999522	4.973804	-2.291370	1.000000	
631	0.000000	0.000000	0.000000	7.880071	5.199715	-1.974371	1.000000	
[LToes]
#Fr	Tx	Ty	Tz	Rx	Ry	Rz	SF
628	0.000000	0.000000	0.000000	-0.758442	-0.000000	-0.000000	1.000000	
629	0.000000	0.000000	0.000000	-0.645477	-0.000000	-0.000000	1.000000	
630	0.000000	0.000000	0.000000	-0.525894	-0.000000	-0.000000	1.000000	
631	0.000000	0.000000	0.000000	-0.413181	-0.000000	-0.000000	1.000000	
